<svg width="46" height="91" viewBox="0 0 46 91" fill="none" xmlns="http://www.w3.org/2000/svg">
<path d="M31.2153 46.5917L37.6091 52.9854C37.7324 53.1046 37.8308 53.2471 37.8985 53.4047C37.9662 53.5623 38.0019 53.7318 38.0034 53.9033C38.0049 54.0748 37.9722 54.2449 37.9072 54.4036C37.8423 54.5624 37.7464 54.7066 37.6251 54.8278C37.5038 54.9491 37.3596 55.045 37.2009 55.11C37.0421 55.1749 36.872 55.2076 36.7005 55.2061C36.529 55.2046 36.3595 55.169 36.2019 55.1013C36.0443 55.0336 35.9018 54.9352 35.7827 54.8118L28.4757 47.5049C28.2336 47.2627 28.0975 46.9342 28.0975 46.5917C28.0975 46.2492 28.2336 45.9207 28.4757 45.6785L35.7827 38.3715C36.0263 38.1362 36.3526 38.006 36.6912 38.009C37.0299 38.0119 37.3539 38.1478 37.5933 38.3872C37.8328 38.6267 37.9687 38.9507 37.9716 39.2894C37.9746 39.628 37.8444 39.9543 37.6091 40.1979L31.2153 46.5917ZM23.4653 46.5917L29.8591 52.9854C29.9824 53.1046 30.0808 53.2471 30.1485 53.4047C30.2162 53.5623 30.2519 53.7318 30.2534 53.9033C30.2548 54.0748 30.2222 54.2449 30.1572 54.4036C30.0923 54.5624 29.9964 54.7066 29.8751 54.8278C29.7538 54.9491 29.6096 55.045 29.4509 55.11C29.2921 55.1749 29.122 55.2076 28.9505 55.2061C28.779 55.2046 28.6095 55.169 28.4519 55.1013C28.2943 55.0336 28.1518 54.9352 28.0327 54.8118L20.7257 47.5049C20.4836 47.2627 20.3475 46.9342 20.3475 46.5917C20.3475 46.2492 20.4836 45.9207 20.7257 45.6785L28.0327 38.3715C28.1518 38.2481 28.2943 38.1497 28.4519 38.082C28.6095 38.0143 28.779 37.9787 28.9505 37.9772C29.122 37.9757 29.2921 38.0084 29.4509 38.0734C29.6096 38.1383 29.7538 38.2342 29.8751 38.3555C29.9964 38.4768 30.0923 38.621 30.1572 38.7797C30.2222 38.9385 30.2548 39.1086 30.2534 39.2801C30.2519 39.4516 30.2162 39.6211 30.1485 39.7787C30.0808 39.9362 29.9824 40.0788 29.8591 40.1979L23.4653 46.5917Z" fill="white"/>
<path d="M45.5 90C20.9233 90 1 70.0767 1 45.5C1 20.9233 20.9233 1 45.5 1" stroke="white"/>
<path d="M45 82C25.1177 82 9 66.1061 9 46.5C9 26.8939 25.1177 11 45 11" stroke="white"/>
</svg>
