<svg width="212" height="91" viewBox="0 0 212 91" fill="none" xmlns="http://www.w3.org/2000/svg">
<path d="M85 42.5C85 65.9721 65.9721 85 42.5 85C19.0279 85 0 65.9721 0 42.5C0 19.0279 19.0279 3.71338e-05 42.5 3.71338e-05C65.9721 3.71338e-05 85 19.0279 85 42.5Z" fill="#023683"/>
<path d="M35.8047 51.0938H21.5078L18.2969 60H13.6562L26.6875 25.875H30.625L43.6797 60H39.0625L35.8047 51.0938ZM22.8672 47.3906H34.4688L28.6562 31.4297L22.8672 47.3906ZM52.3047 60H47.9688V24H52.3047V60ZM63.9766 60H59.6406V24H63.9766V60Z" fill="#fff"/>
<path d="M121.656 60H117.133L99.9531 33.7031V60H95.4297V25.875H99.9531L117.18 52.2891V25.875H121.656V60ZM139.492 60.4688C136.055 60.4688 133.258 59.3438 131.102 57.0938C128.945 54.8281 127.867 51.8047 127.867 48.0234V47.2266C127.867 44.7109 128.344 42.4688 129.297 40.5C130.266 38.5156 131.609 36.9688 133.328 35.8594C135.062 34.7344 136.938 34.1719 138.953 34.1719C142.25 34.1719 144.812 35.2578 146.641 37.4297C148.469 39.6016 149.383 42.7109 149.383 46.7578V48.5625H132.203C132.266 51.0625 132.992 53.0859 134.383 54.6328C135.789 56.1641 137.57 56.9297 139.727 56.9297C141.258 56.9297 142.555 56.6172 143.617 55.9922C144.68 55.3672 145.609 54.5391 146.406 53.5078L149.055 55.5703C146.93 58.8359 143.742 60.4688 139.492 60.4688ZM138.953 37.7344C137.203 37.7344 135.734 38.375 134.547 39.6562C133.359 40.9219 132.625 42.7031 132.344 45H145.047V44.6719C144.922 42.4688 144.328 40.7656 143.266 39.5625C142.203 38.3438 140.766 37.7344 138.953 37.7344ZM176.875 54.0234L181.75 34.6406H186.086L178.703 60H175.188L169.023 40.7812L163.023 60H159.508L152.148 34.6406H156.461L161.453 53.625L167.359 34.6406H170.852L176.875 54.0234ZM205.281 53.2734C205.281 52.1016 204.836 51.1953 203.945 50.5547C203.07 49.8984 201.531 49.3359 199.328 48.8672C197.141 48.3984 195.398 47.8359 194.102 47.1797C192.82 46.5234 191.867 45.7422 191.242 44.8359C190.633 43.9297 190.328 42.8516 190.328 41.6016C190.328 39.5234 191.203 37.7656 192.953 36.3281C194.719 34.8906 196.969 34.1719 199.703 34.1719C202.578 34.1719 204.906 34.9141 206.688 36.3984C208.484 37.8828 209.383 39.7812 209.383 42.0938H205.023C205.023 40.9062 204.516 39.8828 203.5 39.0234C202.5 38.1641 201.234 37.7344 199.703 37.7344C198.125 37.7344 196.891 38.0781 196 38.7656C195.109 39.4531 194.664 40.3516 194.664 41.4609C194.664 42.5078 195.078 43.2969 195.906 43.8281C196.734 44.3594 198.227 44.8672 200.383 45.3516C202.555 45.8359 204.312 46.4141 205.656 47.0859C207 47.7578 207.992 48.5703 208.633 49.5234C209.289 50.4609 209.617 51.6094 209.617 52.9688C209.617 55.2344 208.711 57.0547 206.898 58.4297C205.086 59.7891 202.734 60.4688 199.844 60.4688C197.812 60.4688 196.016 60.1094 194.453 59.3906C192.891 58.6719 191.664 57.6719 190.773 56.3906C189.898 55.0938 189.461 53.6953 189.461 52.1953H193.797C193.875 53.6484 194.453 54.8047 195.531 55.6641C196.625 56.5078 198.062 56.9297 199.844 56.9297C201.484 56.9297 202.797 56.6016 203.781 55.9453C204.781 55.2734 205.281 54.3828 205.281 53.2734Z" fill="#023683"/>
<path d="M154.832 85C154.691 84.6016 154.602 84.0117 154.562 83.2305C154.07 83.8711 153.441 84.3672 152.676 84.7188C151.918 85.0625 151.113 85.2344 150.262 85.2344C149.043 85.2344 148.055 84.8945 147.297 84.2148C146.547 83.5352 146.172 82.6758 146.172 81.6367C146.172 80.4023 146.684 79.4258 147.707 78.707C148.738 77.9883 150.172 77.6289 152.008 77.6289H154.551V76.1875C154.551 75.2812 154.27 74.5703 153.707 74.0547C153.152 73.5312 152.34 73.2695 151.27 73.2695C150.293 73.2695 149.484 73.5195 148.844 74.0195C148.203 74.5195 147.883 75.1211 147.883 75.8242L146.477 75.8125C146.477 74.8047 146.945 73.9336 147.883 73.1992C148.82 72.457 149.973 72.0859 151.34 72.0859C152.754 72.0859 153.867 72.4414 154.68 73.1523C155.5 73.8555 155.922 74.8398 155.945 76.1055V82.1055C155.945 83.332 156.074 84.25 156.332 84.8594V85H154.832ZM150.426 83.9922C151.363 83.9922 152.199 83.7656 152.934 83.3125C153.676 82.8594 154.215 82.2539 154.551 81.4961V78.707H152.043C150.645 78.7227 149.551 78.9805 148.762 79.4805C147.973 79.9727 147.578 80.6523 147.578 81.5195C147.578 82.2305 147.84 82.8203 148.363 83.2891C148.895 83.7578 149.582 83.9922 150.426 83.9922ZM161.875 69.0742V72.3203H164.5V73.4688H161.875V81.918C161.875 82.6211 162 83.1445 162.25 83.4883C162.508 83.832 162.934 84.0039 163.527 84.0039C163.762 84.0039 164.141 83.9648 164.664 83.8867L164.723 85.0352C164.355 85.168 163.855 85.2344 163.223 85.2344C162.262 85.2344 161.562 84.957 161.125 84.4023C160.688 83.8398 160.469 83.0156 160.469 81.9297V73.4688H158.137V72.3203H160.469V69.0742H161.875ZM172.469 78.4727C172.469 77.2539 172.703 76.1562 173.172 75.1797C173.648 74.2031 174.316 73.4453 175.176 72.9062C176.043 72.3594 177.023 72.0859 178.117 72.0859C179.805 72.0859 181.172 72.6797 182.219 73.8672C183.266 75.0469 183.789 76.6133 183.789 78.5664V78.8594C183.789 80.0859 183.551 81.1914 183.074 82.1758C182.605 83.1523 181.941 83.9062 181.082 84.4375C180.223 84.9688 179.242 85.2344 178.141 85.2344C176.461 85.2344 175.094 84.6445 174.039 83.4648C172.992 82.2773 172.469 80.707 172.469 78.7539V78.4727ZM173.875 78.8594C173.875 80.375 174.266 81.6211 175.047 82.5977C175.836 83.5664 176.867 84.0508 178.141 84.0508C179.406 84.0508 180.43 83.5664 181.211 82.5977C182 81.6211 182.395 80.3359 182.395 78.7422V78.4727C182.395 77.5039 182.215 76.6172 181.855 75.8125C181.496 75.0078 180.992 74.3867 180.344 73.9492C179.695 73.5039 178.953 73.2812 178.117 73.2812C176.867 73.2812 175.848 73.7734 175.059 74.7578C174.27 75.7344 173.875 77.0156 173.875 78.6016V78.8594ZM188.031 72.3203L188.078 74.4883C188.555 73.707 189.148 73.1133 189.859 72.707C190.57 72.293 191.355 72.0859 192.215 72.0859C193.574 72.0859 194.586 72.4688 195.25 73.2344C195.914 74 196.25 75.1484 196.258 76.6797V85H194.863V76.668C194.855 75.5352 194.613 74.6914 194.137 74.1367C193.668 73.582 192.914 73.3047 191.875 73.3047C191.008 73.3047 190.238 73.5781 189.566 74.125C188.902 74.6641 188.41 75.3945 188.09 76.3164V85H186.695V72.3203H188.031ZM204.801 85.2344C203.723 85.2344 202.746 84.9688 201.871 84.4375C201.004 83.9062 200.328 83.168 199.844 82.2227C199.359 81.2695 199.117 80.2031 199.117 79.0234V78.5195C199.117 77.3008 199.352 76.2031 199.82 75.2266C200.297 74.25 200.957 73.4844 201.801 72.9297C202.645 72.3672 203.559 72.0859 204.543 72.0859C206.082 72.0859 207.301 72.6133 208.199 73.668C209.105 74.7148 209.559 76.1484 209.559 77.9688V78.7539H200.512V79.0234C200.512 80.4609 200.922 81.6602 201.742 82.6211C202.57 83.5742 203.609 84.0508 204.859 84.0508C205.609 84.0508 206.27 83.9141 206.84 83.6406C207.418 83.3672 207.941 82.9297 208.41 82.3281L209.289 82.9961C208.258 84.4883 206.762 85.2344 204.801 85.2344ZM204.543 73.2812C203.488 73.2812 202.598 73.668 201.871 74.4414C201.152 75.2148 200.715 76.2539 200.559 77.5586H208.164V77.4062C208.125 76.1875 207.777 75.1953 207.121 74.4297C206.465 73.6641 205.605 73.2812 204.543 73.2812Z" fill="#023683"/>
</svg>
