<svg width="110" height="38" viewBox="0 0 110 38" fill="none" xmlns="http://www.w3.org/2000/svg">
<circle cx="19" cy="19" r="19" fill="white"/>
<path d="M17.4023 23.5469H10.2539L8.64844 28H6.32812L12.8438 10.9375H14.8125L21.3398 28H19.0312L17.4023 23.5469ZM10.9336 21.6953H16.7344L13.8281 13.7148L10.9336 21.6953ZM25.6523 28H23.4844V10H25.6523V28ZM31.4883 28H29.3203V10H31.4883V28Z" fill="#023683"/>
<path d="M49.4648 21.3203V28H47.2148V10.9375H53.5078C55.375 10.9375 56.8359 11.4141 57.8906 12.3672C58.9531 13.3203 59.4844 14.582 59.4844 16.1523C59.4844 17.8086 58.9648 19.0859 57.9258 19.9844C56.8945 20.875 55.4141 21.3203 53.4844 21.3203H49.4648ZM49.4648 19.4805H53.5078C54.7109 19.4805 55.6328 19.1992 56.2734 18.6367C56.9141 18.0664 57.2344 17.2461 57.2344 16.1758C57.2344 15.1602 56.9141 14.3477 56.2734 13.7383C55.6328 13.1289 54.7539 12.8125 53.6367 12.7891H49.4648V19.4805ZM68.1445 17.2656C67.8164 17.2109 67.4609 17.1836 67.0781 17.1836C65.6562 17.1836 64.6914 17.7891 64.1836 19V28H62.0156V15.3203H64.125L64.1602 16.7852C64.8711 15.6523 65.8789 15.0859 67.1836 15.0859C67.6055 15.0859 67.9258 15.1406 68.1445 15.25V17.2656ZM75.1758 28.2344C73.457 28.2344 72.0586 27.6719 70.9805 26.5469C69.9023 25.4141 69.3633 23.9023 69.3633 22.0117V21.6133C69.3633 20.3555 69.6016 19.2344 70.0781 18.25C70.5625 17.2578 71.2344 16.4844 72.0938 15.9297C72.9609 15.3672 73.8984 15.0859 74.9062 15.0859C76.5547 15.0859 77.8359 15.6289 78.75 16.7148C79.6641 17.8008 80.1211 19.3555 80.1211 21.3789V22.2812H71.5312C71.5625 23.5312 71.9258 24.543 72.6211 25.3164C73.3242 26.082 74.2148 26.4648 75.293 26.4648C76.0586 26.4648 76.707 26.3086 77.2383 25.9961C77.7695 25.6836 78.2344 25.2695 78.6328 24.7539L79.957 25.7852C78.8945 27.418 77.3008 28.2344 75.1758 28.2344ZM74.9062 16.8672C74.0312 16.8672 73.2969 17.1875 72.7031 17.8281C72.1094 18.4609 71.7422 19.3516 71.6016 20.5H77.9531V20.3359C77.8906 19.2344 77.5938 18.3828 77.0625 17.7812C76.5312 17.1719 75.8125 16.8672 74.9062 16.8672ZM90.0234 24.6367C90.0234 24.0508 89.8008 23.5977 89.3555 23.2773C88.918 22.9492 88.1484 22.668 87.0469 22.4336C85.9531 22.1992 85.082 21.918 84.4336 21.5898C83.793 21.2617 83.3164 20.8711 83.0039 20.418C82.6992 19.9648 82.5469 19.4258 82.5469 18.8008C82.5469 17.7617 82.9844 16.8828 83.8594 16.1641C84.7422 15.4453 85.8672 15.0859 87.2344 15.0859C88.6719 15.0859 89.8359 15.457 90.7266 16.1992C91.625 16.9414 92.0742 17.8906 92.0742 19.0469H89.8945C89.8945 18.4531 89.6406 17.9414 89.1328 17.5117C88.6328 17.082 88 16.8672 87.2344 16.8672C86.4453 16.8672 85.8281 17.0391 85.3828 17.3828C84.9375 17.7266 84.7148 18.1758 84.7148 18.7305C84.7148 19.2539 84.9219 19.6484 85.3359 19.9141C85.75 20.1797 86.4961 20.4336 87.5742 20.6758C88.6602 20.918 89.5391 21.207 90.2109 21.543C90.8828 21.8789 91.3789 22.2852 91.6992 22.7617C92.0273 23.2305 92.1914 23.8047 92.1914 24.4844C92.1914 25.6172 91.7383 26.5273 90.832 27.2148C89.9258 27.8945 88.75 28.2344 87.3047 28.2344C86.2891 28.2344 85.3906 28.0547 84.6094 27.6953C83.8281 27.3359 83.2148 26.8359 82.7695 26.1953C82.332 25.5469 82.1133 24.8477 82.1133 24.0977H84.2812C84.3203 24.8242 84.6094 25.4023 85.1484 25.832C85.6953 26.2539 86.4141 26.4648 87.3047 26.4648C88.125 26.4648 88.7812 26.3008 89.2734 25.9727C89.7734 25.6367 90.0234 25.1914 90.0234 24.6367ZM102.398 24.6367C102.398 24.0508 102.176 23.5977 101.73 23.2773C101.293 22.9492 100.523 22.668 99.4219 22.4336C98.3281 22.1992 97.457 21.918 96.8086 21.5898C96.168 21.2617 95.6914 20.8711 95.3789 20.418C95.0742 19.9648 94.9219 19.4258 94.9219 18.8008C94.9219 17.7617 95.3594 16.8828 96.2344 16.1641C97.1172 15.4453 98.2422 15.0859 99.6094 15.0859C101.047 15.0859 102.211 15.457 103.102 16.1992C104 16.9414 104.449 17.8906 104.449 19.0469H102.27C102.27 18.4531 102.016 17.9414 101.508 17.5117C101.008 17.082 100.375 16.8672 99.6094 16.8672C98.8203 16.8672 98.2031 17.0391 97.7578 17.3828C97.3125 17.7266 97.0898 18.1758 97.0898 18.7305C97.0898 19.2539 97.2969 19.6484 97.7109 19.9141C98.125 20.1797 98.8711 20.4336 99.9492 20.6758C101.035 20.918 101.914 21.207 102.586 21.543C103.258 21.8789 103.754 22.2852 104.074 22.7617C104.402 23.2305 104.566 23.8047 104.566 24.4844C104.566 25.6172 104.113 26.5273 103.207 27.2148C102.301 27.8945 101.125 28.2344 99.6797 28.2344C98.6641 28.2344 97.7656 28.0547 96.9844 27.6953C96.2031 27.3359 95.5898 26.8359 95.1445 26.1953C94.707 25.5469 94.4883 24.8477 94.4883 24.0977H96.6562C96.6953 24.8242 96.9844 25.4023 97.5234 25.832C98.0703 26.2539 98.7891 26.4648 99.6797 26.4648C100.5 26.4648 101.156 26.3008 101.648 25.9727C102.148 25.6367 102.398 25.1914 102.398 24.6367Z" fill="white"/>
</svg>
