<svg width="22" height="22" viewBox="0 0 22 22" fill="none" xmlns="http://www.w3.org/2000/svg">
<path d="M10.9656 0.6875C6.49685 0.6875 2.68123 3.575 1.27185 7.5625H20.7281C19.2844 3.575 15.4687 0.6875 10.9656 0.6875Z" fill="#F9F9F9"/>
<path d="M10.9656 21.3125C15.4687 21.3125 19.2844 18.425 20.6937 14.4375H1.27185C2.68123 18.4594 6.49685 21.3125 10.9656 21.3125Z" fill="#ED4C5C"/>
<path d="M1.27188 7.5625C0.89375 8.62812 0.6875 9.79688 0.6875 11C0.6875 12.2031 0.89375 13.3719 1.27188 14.4375H20.7281C21.1062 13.3719 21.3125 12.2031 21.3125 11C21.3125 9.79688 21.1062 8.62812 20.7281 7.5625H1.27188Z" fill="#428BC1"/>
</svg>
