<svg width="31" height="31" viewBox="0 0 31 31" fill="none" xmlns="http://www.w3.org/2000/svg">
<path d="M15.5 0.1875C7.04395 0.1875 0.1875 7.04395 0.1875 15.5C0.1875 23.9561 7.04395 30.8125 15.5 30.8125C23.9561 30.8125 30.8125 23.9561 30.8125 15.5C30.8125 7.04395 23.9561 0.1875 15.5 0.1875ZM15.5 28.2148C8.47949 28.2148 2.78516 22.5205 2.78516 15.5C2.78516 8.47949 8.47949 2.78516 15.5 2.78516C22.5205 2.78516 28.2148 8.47949 28.2148 15.5C28.2148 22.5205 22.5205 28.2148 15.5 28.2148ZM19.5229 8.09668C18.9795 7.97705 18.3472 7.91211 17.6328 7.91211C13.9858 7.91211 11.5181 9.81592 10.8447 13.0356H9.75781C9.60742 13.0356 9.48438 13.1587 9.48438 13.3091V14.2388C9.48438 14.3892 9.60742 14.5122 9.75781 14.5122H10.6602C10.6499 14.6523 10.6499 14.7993 10.6499 14.9497V16.2109H9.75781C9.60742 16.2109 9.48438 16.334 9.48438 16.4844V17.4141C9.48438 17.5645 9.60742 17.6875 9.75781 17.6875H10.79C11.3779 21.0781 13.8799 23.0879 17.6328 23.0879C18.3472 23.0879 18.9795 23.0298 19.5229 22.9136C19.6494 22.8862 19.7417 22.7769 19.7417 22.647V21.1841C19.7417 21.0132 19.5845 20.8833 19.417 20.9175C18.9146 21.0132 18.3267 21.0576 17.6465 21.0576C15.3052 21.0576 13.7329 19.8066 13.21 17.6875H17.6738C17.8242 17.6875 17.9473 17.5645 17.9473 17.4141V16.4844C17.9473 16.334 17.8242 16.2109 17.6738 16.2109H13.0117V14.9805C13.0117 14.8198 13.0117 14.6592 13.022 14.5088H17.667C17.8174 14.5088 17.9404 14.3857 17.9404 14.2354V13.3057C17.9404 13.1553 17.8174 13.0322 17.667 13.0322H13.2817C13.8696 11.0874 15.4111 9.94238 17.6431 9.94238C18.3232 9.94238 18.9111 9.99365 19.4102 10.0928C19.4498 10.1009 19.4907 10.1001 19.53 10.0904C19.5692 10.0808 19.6059 10.0626 19.6373 10.0371C19.6687 10.0116 19.694 9.97944 19.7115 9.94297C19.7289 9.9065 19.7381 9.86661 19.7383 9.82617V8.36328C19.7383 8.2334 19.6494 8.12402 19.5229 8.09668Z" fill="#6A6A6A"/>
</svg>
