<svg width="25" height="33" viewBox="0 0 25 33" fill="none" xmlns="http://www.w3.org/2000/svg">
<path d="M21.9768 14.0844L13.4211 0.720875C13.3222 0.566339 13.186 0.439178 13.025 0.3511C12.864 0.263022 12.6835 0.216858 12.5 0.216858C12.3165 0.216858 12.1359 0.263022 11.975 0.3511C11.814 0.439178 11.6778 0.566339 11.5788 0.720875L3.02291 14.0845C1.53961 16.0967 0.742432 18.5324 0.749003 21.0322C0.749003 27.5117 6.0204 32.7832 12.5 32.7832C18.9796 32.7832 24.251 27.5118 24.251 21.0322C24.2576 18.5323 23.4603 16.0966 21.9768 14.0844ZM12.5 30.5957C7.22674 30.5957 2.9365 26.3056 2.9365 21.0322C2.93091 18.9878 3.58599 16.9963 4.80415 15.3544C4.81869 15.3347 4.83254 15.3146 4.84571 15.294L12.5 3.33911L20.154 15.2941C20.1671 15.3147 20.181 15.3349 20.1955 15.3545C21.4138 16.9963 22.069 18.9878 22.0635 21.0322C22.0635 26.3055 17.7732 30.5957 12.5 30.5957Z" fill="#6A6A6A"/>
</svg>
