<svg width="31" height="31" viewBox="0 0 31 31" fill="none" xmlns="http://www.w3.org/2000/svg">
<path d="M15.5 0.1875C7.04395 0.1875 0.1875 7.04395 0.1875 15.5C0.1875 23.9561 7.04395 30.8125 15.5 30.8125C23.9561 30.8125 30.8125 23.9561 30.8125 15.5C30.8125 7.04395 23.9561 0.1875 15.5 0.1875ZM15.5 28.2148C8.47949 28.2148 2.78516 22.5205 2.78516 15.5C2.78516 8.47949 8.47949 2.78516 15.5 2.78516C22.5205 2.78516 28.2148 8.47949 28.2148 15.5C28.2148 22.5205 22.5205 28.2148 15.5 28.2148ZM17.1304 14.707L16.2622 14.5054V9.91504C17.561 10.0928 18.3643 10.9062 18.501 11.9043C18.5181 12.041 18.6343 12.1401 18.771 12.1401H20.3057C20.4663 12.1401 20.5928 12 20.5791 11.8394C20.3706 9.70996 18.6172 8.34277 16.2759 8.10693V6.98926C16.2759 6.83887 16.1528 6.71582 16.0024 6.71582H15.042C14.8916 6.71582 14.7686 6.83887 14.7686 6.98926V8.11719C12.3486 8.35303 10.4551 9.68945 10.4551 12.1846C10.4551 14.4951 12.1572 15.6094 13.9448 16.0366L14.7891 16.252V21.1294C13.2783 20.9277 12.4307 20.1211 12.2563 19.0342C12.2358 18.9043 12.1196 18.8086 11.9863 18.8086H10.4072C10.2466 18.8086 10.1201 18.9453 10.1338 19.106C10.2876 20.9858 11.7129 22.7153 14.7549 22.9375V24.0107C14.7549 24.1611 14.8779 24.2842 15.0283 24.2842H15.999C16.1494 24.2842 16.2725 24.1611 16.2725 24.0073L16.2656 22.9238C18.9419 22.688 20.856 21.2559 20.856 18.6855C20.8525 16.3135 19.3452 15.2539 17.1304 14.707ZM14.7856 14.1533C14.5942 14.0986 14.4336 14.0474 14.2729 13.9824C13.1177 13.5654 12.5811 12.8921 12.5811 12.0239C12.5811 10.7832 13.521 10.0757 14.7856 9.91504V14.1533ZM16.2622 21.1396V16.5698C16.3682 16.6006 16.4639 16.6245 16.563 16.645C18.1797 17.1372 18.7231 17.8208 18.7231 18.8701C18.7231 20.2065 17.7183 21.0098 16.2622 21.1396Z" fill="#6A6A6A"/>
</svg>
